<svg version="1.2" xmlns="http://www.w3.org/2000/svg" viewBox="0 0 640 640" width="640" height="640">
	<style>
		.s0 { fill: #9a86f1 } 
	</style>
	<path id="Path 1" fill-rule="evenodd" class="s0" d="m351.21 33.28c-6.82 0.6-17.97 2.02-24.79 3.16-6.82 1.14-20.32 3.78-30.01 5.86-9.68 2.07-23.48 5.02-30.65 6.54-9.4 1.98-19.8 2.95-37.19 3.45-18.23 0.52-27.8 0.17-39.13-1.41-8.25-1.16-24.4-4.1-35.88-6.55-11.48-2.45-26.45-5.18-33.27-6.07-7.52-0.99-17.52-1.3-25.44-0.8-7.17 0.46-16.56 1.78-20.87 2.94-4.3 1.16-12.82 4.48-18.92 7.38-8.93 4.25-13.13 7.33-21.61 15.85-5.8 5.82-12.37 13.81-14.62 17.76-2.25 3.94-5.65 11.57-7.55 16.95-2.85 8.04-3.57 12.79-4.1 26.74-0.45 12.1-0.08 19.56 1.29 26.08 1.06 5.02 4.14 13.82 6.84 19.56 3.88 8.23 7.15 12.67 15.49 21.02 6.73 6.74 13.41 12.02 18.39 14.54 4.31 2.17 11.06 4.85 15.01 5.97 3.94 1.11 10.4 2.4 14.35 2.87 3.94 0.47 11.43 0.21 16.63-0.58 5.2-0.79 13.71-2.82 18.92-4.52 5.2-1.7 16.94-6.4 26.09-10.44 9.15-4.04 21.18-8.82 26.74-10.62 5.56-1.81 13.05-3.28 16.64-3.26 3.58 0.01 8.56 1.05 11.06 2.3 2.5 1.26 5.89 4.34 7.54 6.85 2.12 3.23 2.99 6.46 2.98 11.08 0 4.69-1.18 8.92-4.18 15-3.14 6.4-7.71 12.02-18.61 22.89-7.95 7.93-27.07 24.94-42.5 37.81-15.42 12.87-36.48 31.62-46.79 41.67-10.31 10.05-23.47 24.14-29.26 31.31-5.79 7.17-13.6 17.74-17.35 23.48-3.76 5.73-9.78 16.3-13.37 23.47-3.59 7.17-8.3 18.32-10.47 24.78-2.17 6.46-4.99 16.43-6.27 22.17-1.79 8.02-2.32 16.02-2.28 34.56 0.04 19.67 0.55 26.3 2.76 35.87 1.49 6.45 4.57 16.43 6.84 22.17 2.28 5.74 6.43 14.25 9.24 18.91 2.8 4.66 8.2 11.94 11.99 16.17 3.8 4.24 10.43 10.21 14.73 13.28 4.31 3.07 12.23 7.61 17.61 10.08 5.38 2.48 13.9 5.58 18.92 6.91 7.03 1.85 13.92 2.4 30 2.41 16.57 0 22.63-0.5 29.36-2.44 4.66-1.35 12.88-4.46 18.26-6.9 5.38-2.45 12.94-6.91 16.8-9.92 3.86-3.01 9.67-8.99 12.91-13.29 3.24-4.3 7.21-10.76 8.83-14.35 1.62-3.58 3.97-11.5 5.22-17.6 1.69-8.29 2.06-14.21 1.46-23.48-0.45-6.81-2.32-18.26-4.16-25.43-1.85-7.17-6.33-21.55-9.96-31.95-3.63-10.4-9.5-27.71-13.04-38.47-3.54-10.76-7.62-25.44-9.06-32.61-1.44-7.17-2.94-18.32-3.33-24.78-0.5-8.22-0.09-14.66 1.38-21.52 1.15-5.38 3.7-12.93 5.67-16.78 1.98-3.86 6.23-9.4 9.46-12.33 3.23-2.93 8.81-6.67 12.39-8.32 3.68-1.69 10.51-3.36 15.66-3.82 6.51-0.59 11.19-0.24 16.31 1.21 3.94 1.13 10.11 4.04 13.69 6.48 3.59 2.44 9.32 7.91 12.74 12.15 3.42 4.25 8.22 11.83 10.66 16.85 2.44 5.02 6.27 13.82 8.51 19.56 2.24 5.74 8.49 26.28 13.9 45.65 5.4 19.36 12.38 42.84 15.5 52.16 3.12 9.33 7.82 21.95 10.44 28.04 2.63 6.1 7.9 16.67 11.72 23.48 3.81 6.81 10.62 17.38 15.12 23.47 4.5 6.1 13.21 16.08 19.37 22.18 6.16 6.11 15.9 14.41 21.64 18.46 5.74 4.05 15.13 9.89 20.87 12.98 5.74 3.08 15.43 7.56 21.52 9.93 6.1 2.37 17.84 5.9 26.1 7.83 13.81 3.23 17.17 3.5 42.4 3.47 25.22-0.03 28.38-0.29 39.79-3.36 6.81-1.84 16.79-5.15 22.17-7.37 5.38-2.22 13.6-6.49 18.27-9.49 4.66-3.01 11.92-8.75 16.13-12.76 4.21-4.02 10.16-10.83 13.22-15.13 3.06-4.3 7.03-10.76 8.83-14.35 1.8-3.58 4.56-10.62 6.14-15.65 2.03-6.44 3.08-13.92 3.59-25.43 0.45-10.24 0.13-19.69-0.86-25.43-0.88-5.02-3.04-13.24-4.8-18.26-1.77-5.02-4.58-11.47-6.25-14.34-1.68-2.87-5.97-8.74-9.54-13.04-3.57-4.31-9.66-10.02-13.54-12.7-3.88-2.68-10.57-6.33-14.88-8.12-4.3-1.78-12.52-3.96-18.26-4.84-8-1.23-13.18-1.26-22.18-0.13-6.46 0.81-16.73 2.94-22.83 4.74-6.1 1.79-24.01 8.61-39.79 15.15-15.79 6.54-33.99 13.31-40.44 15.04-6.46 1.73-16.88 3.76-23.16 4.5-7.84 0.93-14.99 0.93-22.83 0.01-6.28-0.73-15.23-2.54-19.9-4.01-4.66-1.48-13.16-5.13-18.89-8.12-7.15-3.74-13.51-8.5-20.33-15.22-6.64-6.54-11.18-12.38-13.69-17.6-2.24-4.67-3.97-10.73-4.29-15-0.3-3.95 0.12-8.5 0.94-10.11 0.81-1.61 3.53-3.81 6.04-4.89 2.51-1.08 8.23-1.96 12.72-1.96 4.48 0 20.19 1.77 34.89 3.93 17.68 2.6 34.71 4.21 50.23 4.74 14.29 0.49 29.87 0.21 39.79-0.71 8.97-0.84 22.18-2.71 29.35-4.16 7.18-1.45 18.92-4.59 26.1-6.97 7.17-2.38 17.45-6.53 22.83-9.22 5.38-2.69 13.6-7.34 18.26-10.34 4.67-2.99 12.8-9.52 18.08-14.5 5.28-4.99 12.38-12.88 15.78-17.54 3.39-4.66 7.97-11.71 10.17-15.65 2.19-3.95 5.52-10.84 7.38-15.33 1.86-4.48 4.99-14.16 6.94-21.52 3.37-12.64 3.56-14.94 3.59-42.71 0.02-19.59-0.54-31.94-1.69-37.17-0.95-4.3-3.22-12.81-5.05-18.91-1.82-6.09-5.48-15.78-8.13-21.52-2.65-5.73-7.57-14.68-10.94-19.88-3.37-5.2-11.26-14.81-17.54-21.35-6.28-6.54-16.7-15.82-23.15-20.64-6.46-4.81-15.27-10.85-19.57-13.43-4.31-2.58-12.53-6.84-18.27-9.49-5.74-2.64-16.31-6.84-23.48-9.34-7.18-2.49-18.92-5.96-26.09-7.7-7.18-1.75-18.63-4.03-25.44-5.08-6.82-1.06-19.15-2.52-27.4-3.25-8.25-0.73-22.63-1.25-31.96-1.16-9.33 0.1-22.54 0.67-29.35 1.27z"/>
	<g id="Layer 1">
	</g>
</svg>